# xmcd CD database file
#
# Track frame offsets:
#	150
#	14125
#	34412
#	51557
#	72770
#	90030
#	104447
#	126390
#	140570
#	158015
#
# Disc length: 2285 seconds
#
# Revision: 0
# Processed by: cddbd v1.5.1PL0 Copyright (c) Steve Scherf et al.
# Submitted via: CDex 1.51
#
DISCID=8c08eb0a
DTITLE=x alfonso - real world
DYEAR=1900
DGENRE=Jazz
TTITLE0=fantasia real
TTITLE1=si todos creen
TTITLE2=no eres tu
TTITLE3=solo tu puedes darme amor
TTITLE4=jungla gris
TTITLE5=si tu te vas
TTITLE6=besando tu corazon
TTITLE7=nada en el mundo
TTITLE8=hablame de amor
TTITLE9=bailando en la distancia
EXTD=
EXTT0=
EXTT1=
EXTT2=
EXTT3=
EXTT4=
EXTT5=
EXTT6=
EXTT7=
EXTT8=
EXTT9=
PLAYORDER=
